<?xml version="1.0" encoding="UTF-8" standalone="no"?>
<!-- Created with Inkscape (http://www.inkscape.org/) -->

<svg
   version="1.1"
   id="svg1"
   width="459"
   height="378"
   viewBox="0 0 459 378"
   sodipodi:docname="Storage Keyhole size1.svg"
   inkscape:version="1.3.2 (091e20e, 2023-11-25, custom)"
   inkscape:export-filename="Storage Keyhole size1.svg"
   inkscape:export-xdpi="96"
   inkscape:export-ydpi="96"
   xmlns:inkscape="http://www.inkscape.org/namespaces/inkscape"
   xmlns:sodipodi="http://sodipodi.sourceforge.net/DTD/sodipodi-0.dtd"
   xmlns="http://www.w3.org/2000/svg"
   xmlns:svg="http://www.w3.org/2000/svg">
  <defs
     id="defs1" />
  <sodipodi:namedview
     id="namedview1"
     pagecolor="#dbd4bf"
     bordercolor="#000000"
     borderopacity="0.25"
     inkscape:showpageshadow="2"
     inkscape:pageopacity="0.0"
     inkscape:pagecheckerboard="0"
     inkscape:deskcolor="#d1d1d1"
     inkscape:zoom="2.7936508"
     inkscape:cx="229.44886"
     inkscape:cy="189"
     inkscape:window-width="2560"
     inkscape:window-height="1333"
     inkscape:window-x="-11"
     inkscape:window-y="-11"
     inkscape:window-maximized="1"
     inkscape:current-layer="g1" />
  <g
     inkscape:groupmode="layer"
     inkscape:label="Image"
     id="g1">
    <path
       style="fill:#dbd4bf"
       d="m 54.643555,358.92198 c -4.8434,-0.42013 -7.605743,-1.13539 -8.234687,-2.13221 -1.309773,-2.07587 -1.233774,-2.45769 0.867751,-4.35954 1.380386,-1.24924 4.650308,-1.83005 12.989151,-2.30716 l 11.144349,-0.63763 -0.03159,-26.15546 c -0.01737,-14.3855 0.265452,-26.92953 0.628499,-27.87561 1.014755,-2.64442 3.889913,-3.73612 11.525475,-4.37626 5.886819,-0.49353 6.8974,-0.84108 6.360698,-2.18754 -2.897621,-7.26947 -7.724327,-23.38459 -9.464885,-31.6008 -2.723722,-12.85719 -3.740301,-38.41342 -2.074178,-52.14373 8.579474,-70.70237 59.652108,-127.958007 127.577678,-143.022593 16.51051,-3.661715 44.44361,-4.347931 61.0831,-1.500592 45.3004,7.751775 83.18852,32.782825 109.71936,72.486865 11.20854,16.77384 17.67302,32.37051 23.28543,56.18005 2.16162,9.17022 2.67938,14.2437 3.11261,30.5 0.45499,17.07294 0.24502,21.11805 -1.68694,32.5 -1.80474,10.63246 -4.95676,22.97648 -7.67732,30.06617 -0.32967,0.85909 1.68421,1.31726 6.96123,1.58374 10.51635,0.53105 10.70253,0.78001 10.70253,14.31173 0,6.16921 0.29631,20.06411 0.65846,30.87755 l 0.65846,19.66081 h 9.77011 c 7.54859,0 10.12742,0.35731 11.34154,1.57143 2.08986,2.08986 1.99343,5.13235 -0.19987,6.30617 -2.49659,1.33614 -364.762432,3.4911 -379.016965,2.25461 z m 56.141525,-16.78309 c 0.35571,-4.20798 0.64674,-15.00798 0.64674,-24 v -16.34912 h -15.000001 -15 l -0.0045,12.75 c -0.0025,7.0125 -0.296256,17.8125 -0.652789,24 l -0.648241,11.25 h 15.006053 15.006056 z m 40.40443,-54.09912 0.25768,-61.25 h -14.36523 -14.36523 l -0.64245,6.14669 c -0.35336,3.38068 -0.64246,31.06771 -0.64246,61.52674 v 55.38004 l 14.75,-0.27674 14.75,-0.27673 z m 43.24435,60.5 c -0.001,-0.4125 -0.002,-14.6466 -0.002,-31.63134 V 286.0271 l -10.03272,-8.61867 c -5.51799,-4.74026 -10.37817,-8.61866 -10.80038,-8.61866 -0.42222,0 -3.26729,2.22788 -6.32238,4.95084 l -5.55472,4.95084 -0.5289,34.79916 c -0.2909,19.13954 -0.32292,35.14739 -0.0712,35.57301 0.58645,0.99139 33.315,0.47673 33.31229,-0.52385 z m 24.72711,-52.96654 -0.22915,-54.21653 -17.5,-10.71583 c -9.625,-5.89371 -18.0625,-10.74627 -18.75,-10.78347 -0.96222,-0.0521 -1.25,4.73586 -1.25,20.79682 v 20.86445 l 11,9.1816 11,9.18161 0.10125,17.70395 c 0.0557,9.73717 0.0156,25.46644 -0.089,34.95394 l -0.1902,17.25 h 8.06811 8.06811 z m 25.68906,53.60955 c 1.41447,-0.54278 1.58179,-6.13612 1.58179,-52.87755 0,-40.62055 0.2786,-52.49174 1.25,-53.2629 0.6875,-0.54578 4.3127,-1.22609 8.05601,-1.51179 3.7433,-0.2857 6.8933,-0.68175 7,-0.88011 0.10669,-0.19836 0.0703,-16.44816 -0.0808,-36.11066 l -0.27479,-35.75 -3.22521,-0.0153 c -5.80532,-0.0276 -6.17752,-0.78394 -6.72521,-13.66671 l -0.5,-11.76102 -4.10306,-0.80827 c -5.68421,-1.11974 -6.39694,-3.21393 -6.39694,-18.79574 v -12.95295 l -3.3888,0 -3.3888,0 -0.45148,14.25 c -0.24832,7.8375 -0.78696,15.01264 -1.19699,15.94475 -0.4615,1.04912 -2.14142,1.81104 -4.40972,2 l -3.66421,0.30525 v 11.89235 c 0,13.42187 0.0129,13.40072 -8.25,13.53737 l -4.25,0.0703 v 28.26994 28.26994 l 7.01894,4.3312 c 3.86042,2.38215 7.55919,5.29818 8.21948,6.48006 0.9046,1.61915 1.12034,15.62655 0.8752,56.82306 -0.17895,30.0708 -0.0262,55.1583 0.33953,55.75 0.70316,1.13773 13.26091,1.50649 15.96506,0.46881 z m 49.20679,-3.51801 c -0.34375,-1.71875 -0.625,-23.54375 -0.625,-48.5 v -45.375 h -18.5 -18.5 v 48.5 48.5 h 19.125 19.125 z m 32.13023,-89.125 c 0.19176,-68.93151 -0.0324,-91.75 -0.90142,-91.75 -0.63616,0 -8.73852,6.10366 -18.00524,13.56368 l -16.84857,13.56367 v 24.93633 24.93632 h 5.46481 c 4.42486,0 5.66668,0.37719 6.52558,1.98205 0.70974,1.32616 1.04365,18.78175 1.00905,52.75 -0.0285,27.92237 -0.04,51.12019 -0.0256,51.5507 0.0144,0.43052 5.08864,0.65552 11.27614,0.5 l 11.25,-0.28275 z m 39.92632,42.51671 c 0.13434,-36.43296 -0.12021,-49.43263 -0.97908,-50 -0.63834,-0.42169 -7.24504,-2.62113 -14.68155,-4.88765 l -13.52092,-4.12094 -0.62579,6.62094 c -0.86902,9.19431 -1.03292,100.6289 -0.18191,101.47991 0.38076,0.38076 7.24326,0.56826 15.25,0.41666 l 14.5577,-0.27563 z m 36.10004,24.73329 c 0.15487,-13.475 0.0338,-25.5125 -0.26906,-26.75 -0.53404,-2.1822 -0.9229,-2.25 -12.9045,-2.25 h -12.35387 l -0.73099,24.88494 c -0.40204,13.68671 -0.42472,25.8499 -0.0504,27.0293 0.65513,2.06414 1.15475,2.13392 13.35391,1.86507 l 12.67331,-0.27931 z m -290.76915,-68.5 c 0.28185,-19.25 0.89249,-35.7875 1.35699,-36.75 0.76506,-1.5853 2.84524,-1.75 22.1027,-1.75 19.94153,0 21.42014,0.12742 23.87367,2.05737 l 2.61551,2.05736 0.26935,21.44697 0.26934,21.44696 4.59341,-3.75433 4.59342,-3.75433 0.6573,-22.43631 c 0.6206,-21.18341 0.77869,-22.56552 2.8309,-24.75 3.25143,-3.46099 6.30678,-2.86933 16.45444,3.18631 5.0691,3.025 9.70119,5.5 10.29354,5.5 0.74395,0 1.07699,-8.75126 1.07699,-28.3 0,-30.19509 0.0794,-30.68757 4.95,-30.71365 6.93217,-0.0371 6.96152,-0.089 7.2692,-12.84493 l 0.2808,-11.64142 3.80582,-0.31369 c 2.09321,-0.17253 3.98102,-0.84753 4.19515,-1.5 0.21412,-0.65247 0.59877,-6.9414 0.85477,-13.97539 0.64553,-17.73687 0.62487,-17.71092 14.09588,-17.71092 8.12623,0 10.74974,0.34422 11.97695,1.57143 1.2815,1.2815 1.57143,4.19986 1.57143,15.81751 v 14.24608 l 5.25,0.93249 5.25,0.93249 0.5,11.9616 0.5,11.9616 3.45114,0.70324 c 6.23643,1.2708 6.12112,0.41803 5.82128,43.05007 l -0.27242,38.73294 2.17054,0.54438 c 5.23733,1.31356 5.32101,0.97795 5.43799,-21.81082 0.0597,-11.62865 0.3972,-23.84301 0.75,-27.14301 l 0.64147,-6 21.5,-17.22907 c 11.825,-9.47598 22.79925,-17.76866 24.38723,-18.42816 2.34234,-0.9728 3.38033,-0.92258 5.5,0.26609 l 2.61277,1.46518 0.57555,38.46298 c 0.31656,21.15464 0.65406,38.53853 0.75,38.63086 0.2444,0.23519 13.69817,4.51343 26.17445,8.32335 5.775,1.76353 11.2875,3.90669 12.25,4.76258 1.5556,1.3833 1.75,3.76066 1.75,21.40118 v 19.84501 h 2.96452 c 2.89775,0 3.04407,-0.25123 6.49682,-11.15511 6.03332,-19.05337 7.03013,-25.95308 6.98448,-48.34489 -0.0437,-21.43034 -1.38852,-30.77409 -6.9479,-48.27344 -3.68587,-11.60208 -15.40116,-34.6504 -22.36796,-44.00608 C 333.3954,91.499983 288.99611,68.789772 239.96344,68.789772 c -41.39505,0 -79.94393,16.712264 -109.24458,47.361278 -41.096208,42.98738 -54.161274,107.15953 -33.307919,163.59967 3.956099,10.70727 4.392059,11.20813 9.434409,10.83856 l 4.08647,-0.29951 z"
       id="path1" />
  </g>
</svg>
